<svg width="34" height="34" viewBox="0 0 34 34" fill="none" xmlns="http://www.w3.org/2000/svg">
<circle cx="17" cy="17" r="17" fill="#F2C225"/>
<path d="M24.1773 9.42811C23.9337 9.32708 23.6654 9.30053 23.4066 9.35183C23.1478 9.40313 22.9102 9.52996 22.724 9.71618L21 11.4327L17.9427 8.38868C17.6926 8.13981 17.3536 8 17 8C16.6464 8 16.3074 8.13981 16.0573 8.38868L13 11.4327L11.276 9.71618C11.0895 9.53059 10.852 9.4042 10.5934 9.353C10.3348 9.3018 10.0667 9.32809 9.82313 9.42854C9.57953 9.529 9.37131 9.6991 9.2248 9.91736C9.07829 10.1356 9.00006 10.3922 9 10.6547V17.6812C9.00106 18.5611 9.35259 19.4046 9.97748 20.0268C10.6024 20.649 11.4496 20.9989 12.3333 21H21.6667C22.5504 20.9989 23.3976 20.649 24.0225 20.0268C24.6474 19.4046 24.9989 18.5611 25 17.6812V10.6547C25.0001 10.3922 24.9219 10.1355 24.7755 9.9172C24.6291 9.69887 24.4209 9.52867 24.1773 9.42811Z" fill="white"/>
<path d="M9 23.5C9 22.6716 9.67157 22 10.5 22H23.5C24.3284 22 25 22.6716 25 23.5C25 24.3284 24.3284 25 23.5 25H10.5C9.67157 25 9 24.3284 9 23.5Z" fill="white"/>
</svg>
