<svg width="113" height="17" viewBox="0 0 113 17" fill="none" xmlns="http://www.w3.org/2000/svg">
<path fill-rule="evenodd" clip-rule="evenodd" d="M9.86646 0.574066L11.8258 4.52061C11.9766 4.82441 12.2684 5.03526 12.6056 5.08371L16.9872 5.71659C17.8366 5.83938 18.1759 6.87721 17.5613 7.47291L14.3909 10.545C14.1469 10.7814 14.0353 11.1224 14.0929 11.4563L14.8415 15.7941C14.9865 16.6351 14.0984 17.2765 13.3385 16.8795L9.41953 14.8316C9.11791 14.674 8.75743 14.674 8.45549 14.8316L4.53678 16.8795C3.77689 17.2765 2.88887 16.6351 3.03386 15.7941L3.78241 11.4563C3.84004 11.1224 3.72877 10.7814 3.48446 10.545L0.314 7.47291C-0.300904 6.87721 0.0384265 5.83938 0.888133 5.71659L5.2697 5.08371C5.60719 5.03496 5.89871 4.82441 6.04952 4.52061L8.00887 0.574066C8.38897 -0.191355 9.48666 -0.191355 9.86646 0.574066Z" fill="#FCE340"/>
<path fill-rule="evenodd" clip-rule="evenodd" d="M33.6478 0.574066L35.6072 4.52061C35.758 4.82441 36.0498 5.03526 36.387 5.08371L40.7686 5.71659C41.618 5.83938 41.9573 6.87721 41.3427 7.47291L38.1722 10.545C37.9282 10.7814 37.8167 11.1224 37.8743 11.4563L38.6228 15.7941C38.7678 16.6351 37.8798 17.2765 37.1199 16.8795L33.2009 14.8316C32.8993 14.674 32.5385 14.674 32.2369 14.8316L28.3179 16.8795C27.558 17.2765 26.6699 16.6351 26.8149 15.7941L27.5635 11.4563C27.6211 11.1224 27.5095 10.7814 27.2655 10.545L24.0951 7.47291C23.4805 6.87721 23.8195 5.83938 24.6692 5.71659L29.0508 5.08371C29.3883 5.03496 29.6798 4.82441 29.8306 4.52061L31.7899 0.574066C32.17 -0.191355 33.2677 -0.191355 33.6478 0.574066Z" fill="#FCE340"/>
<path fill-rule="evenodd" clip-rule="evenodd" d="M57.4289 0.574066L59.3886 4.52061C59.5394 4.82441 59.8312 5.03526 60.1684 5.08371L64.5499 5.71659C65.3993 5.83938 65.7387 6.87721 65.1241 7.47291L61.9536 10.545C61.7096 10.7814 61.598 11.1224 61.6557 11.4563L62.4042 15.7941C62.5492 16.6351 61.6612 17.2765 60.9013 16.8795L56.9823 14.8316C56.6806 14.674 56.3199 14.674 56.0182 14.8316L52.0992 16.8795C51.3393 17.2765 50.4513 16.6351 50.5963 15.7941L51.3448 11.4563C51.4025 11.1224 51.2912 10.7814 51.0469 10.545L47.8764 7.47291C47.2615 6.87721 47.6009 5.83938 48.4506 5.71659L52.8321 5.08371C53.1696 5.03496 53.4611 4.82441 53.612 4.52061L55.5713 0.574066C55.9511 -0.191355 57.0491 -0.191355 57.4289 0.574066Z" fill="#FCE340"/>
<path fill-rule="evenodd" clip-rule="evenodd" d="M81.21 0.574066L83.1693 4.52061C83.3201 4.82441 83.612 5.03526 83.9491 5.08371L88.3307 5.71659C89.1801 5.83938 89.5194 6.87721 88.9048 7.47291L85.7344 10.545C85.4904 10.7814 85.3788 11.1224 85.4364 11.4563L86.185 15.7941C86.33 16.6351 85.4419 17.2765 84.6821 16.8795L80.763 14.8316C80.4614 14.674 80.1006 14.674 79.799 14.8316L75.88 16.8795C75.1201 17.2765 74.2321 16.6351 74.3771 15.7941L75.1256 11.4563C75.1832 11.1224 75.0717 10.7814 74.8277 10.545L71.6572 7.47291C71.0423 6.87721 71.3816 5.83938 72.2313 5.71659L76.6129 5.08371C76.9504 5.03496 77.2419 4.82441 77.3927 4.52061L79.3521 0.574066C79.7325 -0.191355 80.8302 -0.191355 81.21 0.574066Z" fill="#FCE340"/>
<path fill-rule="evenodd" clip-rule="evenodd" d="M104.991 0.574066L106.951 4.52061C107.102 4.82441 107.393 5.03526 107.731 5.08371L112.112 5.71659C112.961 5.83938 113.301 6.87721 112.686 7.47291L109.516 10.545C109.272 10.7814 109.16 11.1224 109.218 11.4563L109.966 15.7941C110.111 16.6351 109.223 17.2765 108.463 16.8795L104.544 14.8316C104.243 14.674 103.882 14.674 103.58 14.8316L99.6614 16.8795C98.9015 17.2765 98.0134 16.6351 98.1584 15.7941L98.907 11.4563C98.9646 11.1224 98.853 10.7814 98.609 10.545L95.4386 7.47291C94.824 6.87721 95.163 5.83938 96.0127 5.71659L100.394 5.08371C100.732 5.03496 101.023 4.82441 101.174 4.52061L103.133 0.574066C103.514 -0.191355 104.611 -0.191355 104.991 0.574066Z" fill="#FCE340"/>
</svg>
